<svg width="26" height="24" viewBox="0 0 26 24" fill="none" xmlns="http://www.w3.org/2000/svg">
<g id="Group 6">
<path id="Vector 5" d="M10.1107 17.7778L5.77734 23.5556" stroke="black"/>
<path id="Vector 6" d="M15.8893 17.7778L20.2227 23.5556" stroke="black"/>
<rect id="Rectangle 4" y="0.444458" width="26" height="20.2222" rx="2" fill="#001853"/>
<g id="Ellipse 6">
<mask id="path-4-inside-1_87_310" fill="white">
<path d="M20.2218 10.5556C20.2218 11.984 19.7982 13.3803 19.0046 14.568C18.211 15.7557 17.0831 16.6814 15.7634 17.228C14.4437 17.7747 12.9916 17.9177 11.5906 17.639C10.1896 17.3603 8.90273 16.6725 7.89268 15.6624C6.88264 14.6524 6.19479 13.3655 5.91612 11.9646C5.63745 10.5636 5.78047 9.11143 6.3271 7.79174C6.87374 6.47205 7.79943 5.3441 8.98711 4.55051C10.1748 3.75692 11.5711 3.33334 12.9996 3.33334V10.5556H20.2218Z"/>
</mask>
<path d="M20.2218 10.5556C20.2218 11.984 19.7982 13.3803 19.0046 14.568C18.211 15.7557 17.0831 16.6814 15.7634 17.228C14.4437 17.7747 12.9916 17.9177 11.5906 17.639C10.1896 17.3603 8.90273 16.6725 7.89268 15.6624C6.88264 14.6524 6.19479 13.3655 5.91612 11.9646C5.63745 10.5636 5.78047 9.11143 6.3271 7.79174C6.87374 6.47205 7.79943 5.3441 8.98711 4.55051C10.1748 3.75692 11.5711 3.33334 12.9996 3.33334V10.5556H20.2218Z" fill="white" stroke="black" stroke-width="0.4" mask="url(#path-4-inside-1_87_310)"/>
</g>
<path id="Ellipse 7" d="M20.2225 9.11112C20.2225 8.35237 20.0731 7.60105 19.7827 6.90006C19.4924 6.19907 19.0668 5.56213 18.5303 5.02562C17.9938 4.4891 17.3568 4.06351 16.6558 3.77315C15.9548 3.48279 15.2035 3.33334 14.4448 3.33334L14.4448 9.11112H20.2225Z" fill="white"/>
</g>
</svg>
